<svg xmlns="http://www.w3.org/2000/svg" width="24" height="24" viewBox="0 0 24 24">
  <path fill="#6F7786" fill-rule="evenodd" d="M13.4261944,11.9997479 L17.7050296,7.72091264 C17.9016765,7.52426573 18.0005042,7.26610362 18.0005042,7.00794151 C18.0005042,6.7497794 17.9016765,6.49262574 17.7050296,6.29497038 C17.3107273,5.90167654 16.6723812,5.90167654 16.2790874,6.29497038 L12.0002521,10.5738056 L7.72141687,6.29497038 C7.32812303,5.90167654 6.68977688,5.90167654 6.2954746,6.29497038 C6.09882768,6.49262574 6,6.7497794 6,7.00794151 C6,7.26610362 6.09882768,7.52426573 6.2954746,7.72091264 L10.5743098,11.9997479 L6.2954746,16.2785831 C6.09882768,16.4752301 6,16.7333922 6,16.9915543 C6,17.2497164 6.09882768,17.50687 6.2954746,17.7045254 C6.49312996,17.9011723 6.75028363,18 7.00844573,18 C7.26660784,18 7.52476995,17.9011723 7.72141687,17.7045254 L12.0002521,13.4256902 L16.2790874,17.7045254 C16.4757343,17.9011723 16.7338964,18 16.9920585,18 C17.2502206,18 17.5073743,17.9011723 17.7050296,17.7045254 C17.9016765,17.50687 18.0005042,17.2497164 18.0005042,16.9915543 C18.0005042,16.7333922 17.9016765,16.4752301 17.7050296,16.2785831 L13.4261944,11.9997479 Z"/>
</svg>
