<?xml version="1.0" encoding="UTF-8"?>
<svg width="24px" height="24px" viewBox="0 0 24 24" version="1.1" xmlns="http://www.w3.org/2000/svg" xmlns:xlink="http://www.w3.org/1999/xlink">
    <title>31952E18-F2A1-43AD-A8CE-3E83DF7E1CA1ic_</title>
    <g id="Page-1" stroke="none" stroke-width="1" fill="none" fill-rule="evenodd">
        <g id="WhatsApp-Widget" transform="translate(-328.000000, -553.000000)" fill="#FFFFFF">
            <g id="Buttons/1.-Primary/3.-Large/1.-Positive/3.-Icon-+-Text" transform="translate(316.000000, 541.000000)">
                <g id="Icons/Add" transform="translate(12.000000, 12.000000)">
                    <path d="M17.42,14.3826667 C17.1213333,14.2333333 15.6613333,13.5146667 15.3893333,13.4146667 C15.116,13.316 14.9173333,13.2666667 14.72,13.564 C14.5213333,13.8613333 13.952,14.5306667 13.7786667,14.7293333 C13.6053333,14.9266667 13.432,14.952 13.1346667,14.8026667 C12.836,14.6546667 11.88,14.3413333 10.744,13.328 C9.86,12.54 9.264,11.568 9.09066667,11.2706667 C8.91733333,10.972 9.072,10.812 9.22133333,10.664 C9.35466667,10.5306667 9.51733333,10.316 9.66666667,10.1426667 C9.816,9.96933333 9.86533333,9.84533333 9.964,9.64666667 C10.0626667,9.44933333 10.0133333,9.276 9.94,9.12666667 C9.86533333,8.97733333 9.27066667,7.516 9.02266667,6.92 C8.78133333,6.34133333 8.536,6.41866667 8.35333333,6.41066667 C8.18,6.40133333 7.98266667,6.4 7.784,6.4 C7.58666667,6.4 7.264,6.47333333 6.992,6.772 C6.72,7.06933333 5.95066667,7.788 5.95066667,9.25066667 C5.95066667,10.7133333 7.016,12.1266667 7.16533333,12.324 C7.31333333,12.5226667 9.26133333,15.524 12.2426667,16.8106667 C12.952,17.1173333 13.5053333,17.3 13.9373333,17.4373333 C14.6493333,17.664 15.2973333,17.632 15.8093333,17.5546667 C16.3813333,17.4693333 17.568,16.836 17.816,16.1413333 C18.0626667,15.448 18.0626667,14.8533333 17.9893333,14.7293333 C17.9146667,14.6053333 17.7173333,14.5306667 17.42,14.3826667 M11.996,21.7853333 L11.992,21.7853333 C10.2186667,21.7853333 8.47733333,21.308 6.95866667,20.408 L6.59866667,20.192 L2.856,21.1746667 L3.85466667,17.5266667 L3.61866667,17.1533333 C2.62933333,15.5786667 2.108,13.76 2.108,11.8933333 C2.11066667,6.44266667 6.54666667,2.00933333 12,2.00933333 C14.6413333,2.00933333 17.1226667,3.03866667 18.9906667,4.908 C20.8573333,6.776 21.8853333,9.25866667 21.8840013,11.9013333 C21.8826667,17.352 17.4466667,21.7853333 11.996,21.7853333 M20.4106667,3.488 C18.1653333,1.24 15.1773333,0.00133333333 11.996,0 C5.43866667,0 0.102666667,5.33466667 0.1,11.892 C0.0986666667,13.988 0.646666667,16.0333333 1.68666667,17.8373333 L0,24 L6.30666667,22.3466667 C8.044,23.2946667 10.0013333,23.7933333 11.992,23.7946667 L11.996,23.7946667 C18.5533333,23.7946667 23.8906667,18.4586667 23.8920011,11.9013333 C23.8933333,8.724 22.6573333,5.736 20.4106667,3.488" id="🎨-Icon-Colour"></path>
                </g>
            </g>
        </g>
    </g>
</svg>